<svg xmlns="http://www.w3.org/2000/svg" viewBox="0 0 20 20">
  <path d="M10.006 4.864a5.14 5.14 0 0 0-5.14 5.138 5.14 5.14 0 0 0 10.28 0 5.14 5.14 0 0 0-5.14-5.138Zm0 8.47a3.333 3.333 0 1 1 0-6.666 3.333 3.333 0 0 1 0 6.667Zm5.343-7.474a1.2 1.2 0 1 0 0-2.4 1.2 1.2 0 0 0 0 2.4Z"/>
  <path d="M10.006 0C7.289 0 6.95.011 5.883.059 4.82.106 4.09.278 3.456.523A4.883 4.883 0 0 0 1.68 1.68 4.9 4.9 0 0 0 .522 3.45C.277 4.087.104 4.813.058 5.877.01 6.947 0 7.287 0 10.002c0 2.716.011 3.056.059 4.122.047 1.063.219 1.794.464 2.426a4.88 4.88 0 0 0 1.158 1.773c.556.556 1.113.9 1.77 1.154.638.245 1.365.417 2.428.464C6.946 19.99 7.286 20 10 20c2.718 0 3.058-.011 4.125-.059 1.063-.047 1.794-.219 2.426-.464a4.89 4.89 0 0 0 1.771-1.154 4.888 4.888 0 0 0 1.154-1.769c.245-.636.417-1.364.464-2.426.047-1.067.059-1.407.059-4.122 0-2.716-.011-3.056-.059-4.123-.047-1.062-.219-1.792-.464-2.425A4.684 4.684 0 0 0 18.33 1.68 4.878 4.878 0 0 0 16.56.528c-.637-.247-1.363-.42-2.427-.466C13.063.012 12.723 0 10.006 0Zm0 1.801c2.673 0 2.99.011 4.042.059.976.042 1.504.207 1.855.344a3.06 3.06 0 0 1 1.15.745c.351.352.567.684.747 1.15.137.351.3.882.344 1.855.046 1.056.058 1.372.058 4.04 0 2.673-.01 2.99-.059 4.04-.043.977-.206 1.504-.344 1.856a3.1 3.1 0 0 1-.746 1.149 3.077 3.077 0 0 1-1.149.745c-.352.137-.884.302-1.856.345-1.056.047-1.372.058-4.042.058-2.674 0-2.99-.011-4.042-.058-.977-.043-1.504-.208-1.855-.345a3.094 3.094 0 0 1-1.15-.745 3.076 3.076 0 0 1-.748-1.15c-.137-.352-.3-.883-.344-1.856-.047-1.055-.058-1.372-.058-4.04 0-2.672.011-2.989.058-4.04.044-.977.207-1.504.344-1.855.18-.466.399-.801.747-1.15a3.078 3.078 0 0 1 1.149-.746c.352-.136.883-.3 1.856-.344 1.051-.046 1.368-.058 4.041-.058l.002.001Z"/>
</svg>
