<svg xmlns="http://www.w3.org/2000/svg" viewBox="0 0 20 20">
  <path d="M11.859 10.007a1.862 1.862 0 0 1-1.863 1.861 1.862 1.862 0 1 1 1.863-1.86Z"/>
  <path d="M15.797 6.652C18.341 7.43 20 8.684 20 10.007c0 1.32-1.651 2.574-4.179 3.351.592 2.582.335 4.638-.81 5.298a1.82 1.82 0 0 1-.922.228c-1.121 0-2.589-.79-4.073-2.166C8.532 18.102 7.065 18.9 5.944 18.9c-.343 0-.653-.073-.917-.228-1.15-.66-1.411-2.72-.824-5.31C1.659 12.586 0 11.332 0 10.008c0-1.319 1.651-2.569 4.187-3.35-.591-2.582-.335-4.638.811-5.298a1.82 1.82 0 0 1 .921-.228v-.004c1.121 0 2.589.79 4.073 2.166 1.484-1.384 2.951-2.183 4.072-2.183v.005c.337 0 .646.073.91.228 1.15.66 1.41 2.72.823 5.31ZM14.06 2.02c-.848.002-2.093.677-3.42 1.91a19.864 19.864 0 0 1 1.696 2.035c.917.098 1.79.248 2.589.444.09-.411.163-.814.207-1.197.188-1.556-.053-2.765-.607-3.083a.945.945 0 0 0-.465-.105V2.02ZM9.344 3.932c-1.33-1.225-2.58-1.897-3.425-1.897v.004a.908.908 0 0 0-.469.106c-.55.321-.786 1.53-.595 3.086.05.379.118.774.212 1.181.8-.2 1.672-.35 2.593-.448a19.236 19.236 0 0 1 1.684-2.032ZM14.142 8.9c.212-.542.4-1.083.55-1.609a18.414 18.414 0 0 0-1.671-.321 22.06 22.06 0 0 1 1.12 1.93Zm-2.3 4.283a21.696 21.696 0 0 0 1.827-3.18 21.2 21.2 0 0 0-1.835-3.168 21.234 21.234 0 0 0-3.677.004 21.69 21.69 0 0 0-1.826 3.18 21.206 21.206 0 0 0 1.835 3.168 21.25 21.25 0 0 0 3.677-.004Zm2.862-.464a17.444 17.444 0 0 0-.562-1.62 22.51 22.51 0 0 1-1.117 1.946 18.312 18.312 0 0 0 1.68-.326Zm-5.83 1.421c.376.477.755.912 1.134 1.303.375-.39.754-.826 1.121-1.303a21.068 21.068 0 0 1-2.254 0Zm-3.57-1.417c.534.13 1.092.236 1.671.322-.2-.31-.395-.627-.587-.953a19.254 19.254 0 0 1-.534-.977c-.212.541-.4 1.083-.55 1.608Zm5.817-6.849a16.802 16.802 0 0 0-1.133-1.302c-.375.39-.754.826-1.121 1.303a21.068 21.068 0 0 1 2.254 0Zm-4.737 2.06c.188-.329.387-.65.587-.964-.583.085-1.145.195-1.68.321.155.53.343 1.075.563 1.621.167-.326.342-.651.53-.977ZM.905 10.008c0 .64.934 1.446 2.377 2.06.354.151.738.29 1.141.416.228-.794.53-1.62.905-2.468a19.539 19.539 0 0 1-.917-2.48c-.396.127-.779.261-1.13.412-1.442.61-2.376 1.421-2.376 2.06Zm3.963 4.797c-.188 1.555.053 2.765.607 3.082.122.07.277.106.46.11.849 0 2.096-.676 3.425-1.91a19.88 19.88 0 0 1-1.696-2.035 19.781 19.781 0 0 1-2.589-.444c-.09.411-.163.814-.207 1.197Zm9.681 3.066c.55-.322.787-1.531.596-3.086a11.362 11.362 0 0 0-.212-1.185c-.8.2-1.672.35-2.593.448a19.222 19.222 0 0 1-1.684 2.031c1.33 1.226 2.58 1.898 3.425 1.898a.908.908 0 0 0 .469-.106Zm1.036-5.391c.395-.126.779-.26 1.13-.411 1.442-.611 2.376-1.421 2.38-2.06 0-.64-.934-1.446-2.377-2.061-.358-.15-.742-.29-1.145-.415-.229.794-.53 1.62-.905 2.467.379.851.685 1.682.917 2.48Z" />
</svg>
